<?xml version="1.0" encoding="utf-8" ?><!-- created by svgstack.com | Attribution is required. --><svg xmlns="http://www.w3.org/2000/svg" xmlns:xlink="http://www.w3.org/1999/xlink" width="1024" height="1024"><defs><linearGradient id="gradient_0" gradientUnits="userSpaceOnUse" x1="456.92807" y1="237.66241" x2="61.472961" y2="269.24567"><stop offset="0" stop-color="#E02A22"/><stop offset="1" stop-color="#FFC40F"/></linearGradient></defs><path fill="url(#gradient_0)" transform="scale(2 2)" d="M260.508 65.2753C267.458 67.4656 274.137 70.7902 280.841 73.6344L376.749 113.448C387.819 118.052 399.042 122.269 409.965 127.227C414.428 129.252 423.713 147.898 426.588 152.936L449.008 191.486C455.554 202.522 457.905 203.139 444.85 209.811C439.489 212.55 433.89 215.155 428.741 218.274L428.749 344.232C428.758 348.198 429.303 352.611 428.741 356.5C424.315 360.625 402.758 370.016 396.57 373.134L310.906 415.833C297.255 422.672 283.568 429.486 269.759 436.002C265.521 438.002 261.126 440.82 256.65 442.101C250.049 439.863 219.273 426.711 217.593 425.308C205.218 421.493 188.453 412.987 175.823 407.767L111.37 380.391C103.319 376.883 94.8968 373.882 87.0402 369.958C81.2627 367.074 82.7096 361.662 82.739 356.375L82.7469 249.739C82.7439 244.218 82.2706 237.907 82.7478 232.512C76.7436 229.47 63.6776 225.471 59.3146 222.213C53.9375 218.199 65.8063 203.301 68.4762 198.848L84.9798 170.977C88.0354 165.895 99.9374 143.796 103.594 141.789C125.24 129.911 149.114 119.073 171.344 108.217L198.297 95.0597C204.17 92.1437 210.052 88.8262 216.139 86.4155C228.125 80.2388 247.924 69.6358 260.508 65.2753ZM214.932 285.962C209.706 284.024 204.566 281.789 199.41 279.669L105.344 241.271C102.259 240.013 99.154 238.585 95.9708 237.604L95.9708 359.902C103.732 362.783 111.253 366.349 118.88 369.562L166.955 390.032C189.821 399.892 213.058 408.973 235.768 419.19C238.044 419.648 246.851 424.03 249.835 425.308L249.835 233.584C246.938 237.756 244.497 242.202 241.876 246.548L227.603 270.434C223.848 276.809 222.272 283.574 214.932 285.962ZM109.343 154.832C107.271 159.447 104.285 163.649 101.781 168.035C92.834 183.707 82.3826 199.378 73.9374 215.15C87.3681 220.315 100.616 225.845 113.951 231.241L194.87 263.891C197.744 265.053 210.067 271.12 212.355 270.503L212.719 270.136C216.424 263.11 221.269 256.495 225.342 249.659L237.189 229.841C240.727 223.871 244.154 217.848 248.069 212.111C234.97 205.721 220.905 201.38 207.77 195.072C174.717 182.572 142.996 166.754 109.343 154.832ZM261.452 79.2335C255.144 81.6166 248.998 84.9858 242.94 87.9522L214.233 101.868C210.035 103.894 203.657 107.599 199.41 108.728C197.897 110.21 190.872 112.895 188.488 114.08L138.952 138.379C134.391 140.672 126.559 143 123.202 146.756C129.313 148.175 135.305 151.2 141.081 153.659L181.655 170.626C184.796 171.969 188.116 173.255 191.083 174.951C199.219 170.325 207.62 166.054 216.139 162.177C219.037 160.424 222.291 158.988 225.317 157.452L316.334 112.059C319.891 110.308 323.532 108.662 326.956 106.663C317.794 102.368 308.286 98.9443 298.975 95.0116L275.907 85.3581C271.091 83.3105 266.343 81.1003 261.452 79.2335ZM342.86 113.148L231.565 168.806C226.588 171.34 221.419 174.401 216.139 176.183C213.388 177.795 210.391 179.063 207.77 180.872C210.098 182.373 212.472 182.988 214.932 184.122C219.537 184.978 251.126 199.583 255.373 201.815C262.669 198.014 270.155 194.543 277.504 190.839L379.977 139.762C384.125 137.732 388.943 136.041 392.733 133.409C377.667 128.702 357.55 119.47 342.86 113.148Z"/><defs><linearGradient id="gradient_1" gradientUnits="userSpaceOnUse" x1="438.00644" y1="204.1609" x2="265.49225" y2="204.34145"><stop offset="0" stop-color="#FD9513"/><stop offset="1" stop-color="#FECB17"/></linearGradient></defs><path fill="url(#gradient_1)" transform="scale(2 2)" d="M405.113 141.182L405.593 141.294C406.643 142.727 407.382 144.581 408.255 146.143C418.15 163.837 428.449 181.46 439.066 198.72L313.91 260.89C311.671 262.003 301.906 268.234 300.043 267.267C294.553 258.093 271.498 218.354 264.677 212.111C269.02 208.493 274.69 206.327 279.701 203.74C321.214 182.307 363.618 162.626 405.113 141.182Z"/><path fill="#F69315" transform="scale(2 2)" d="M134.347 289.511C138.146 289.362 141.841 292.105 145.232 293.547L196.227 314.828C203.414 317.774 215.574 319.674 216.076 328.022C216.523 335.46 216.155 343.114 216.127 350.574C216.105 356.533 218.566 371.111 212.719 373.909C208.489 373.471 201.67 369.897 197.565 368.158L180.601 361.027C167.767 355.681 154.855 350.493 141.929 345.375C137.443 343.599 130.647 342.408 130.365 336.543C130.022 329.433 130.387 322.114 130.391 314.985C130.394 308.593 127.624 291.834 134.347 289.511ZM143.804 307.826L143.804 332.211C161.721 337.423 185.435 349.012 202.755 356.5L202.755 332.211C195.34 327.42 177.751 321.361 169.171 317.826L152.741 311.136C149.905 309.993 146.807 308.376 143.804 307.826Z"/><defs><linearGradient id="gradient_2" gradientUnits="userSpaceOnUse" x1="417.15952" y1="329.4028" x2="257.68802" y2="319.59171"><stop offset="0" stop-color="#FD9A15"/><stop offset="1" stop-color="#FFCE17"/></linearGradient></defs><path fill="url(#gradient_2)" transform="scale(2 2)" d="M416.434 224.213L416.495 224.237L416.6 224.597L416.959 224.72L416.632 224.86C415.963 239.464 416.431 254.246 416.43 268.868L416.434 348.914C392.555 362.765 364.069 375.184 339.158 387.381L283.844 414.661C276.815 418.129 269.956 422.098 262.812 425.308C263.021 409.007 262.816 392.678 262.812 376.375L262.812 232.512C269.49 240.761 278.902 257.055 284.499 266.375C294.491 283.012 292.811 285.933 309.604 277.413L403.618 230.267C407.849 228.152 412.013 225.91 416.434 224.213Z"/></svg> 